{"title":"Couples.Retreat.CAM.XviD-CAMELOT","uid":5129547,"size":742578266,"categoryP":"video","categoryS":"movies","magnet":"?xt=urn:btih:1308e4f3f5f98363d4832804c047f4b40f76b5f0&amp;dn=Couples.Retreat.CAM.XviD-CAMELOT&amp;tr=udp%3A%2F%2Ftracker.openbittorrent.com%3A80&amp;tr=udp%3A%2F%2Fopen.demonii.com%3A1337&amp;tr=udp%3A%2F%2Ftracker.coppersurfer.tk%3A6969&amp;tr=udp%3A%2F%2Fexodus.desync.com%3A6969","seeders":0,"leechers":1,"uploader":"rsnekr","files":3,"time":1255986160,"description":" &lt;a href=&quot;http://www.imdb.com/title/tt1078940/&quot; rel=&quot;nofollow&quot; target=&quot;_NEW&quot;&gt;http://www.imdb.com/title/tt1078940/&lt;/a&gt;\n\nCouples.Retreat.CAM.XviD-CAMELOT.avi\n\nFormat                           : AVI\n\nFormat/Info                      : Audio Video Interleave\n\nFile size                        : 696 MiB\n\nDuration                         : 1h 49mn\n\nOverall bit rate                 : 892 Kbps\n\nWriting application              : VirtualDubMod 1.5.10.2 (build 2540/release)\n\nWriting library                  : VirtualDubMod build 2540/release\n\n\n\nVideo\n\nID                               : 0\n\nFormat                           : MPEG-4 Visual\n\nFormat profile                   : Streaming Video@L1\n\nFormat settings, BVOP            : Yes\n\nFormat settings, QPel            : No\n\nFormat settings, GMC             : No warppoints\n\nFormat settings, Matrix          : Default (H.263)\n\nMuxing mode                      : Packed bitstream\n\nCodec ID                         : XVID\n\nCodec ID/Hint                    : XviD\n\nDuration                         : 1h 49mn\n\nBit rate                         : 742 Kbps\n\nWidth                            : 624 pixels\n\nHeight                           : 320 pixels\n\nDisplay aspect ratio             : 1.950\n\nFrame rate                       : 23.976 fps\n\nResolution                       : 24 bits\n\nColorimetry                      : 4:2:0\n\nScan type                        : Progressive\n\nBits/(Pixel*Frame)               : 0.155\n\nStream size                      : 579 MiB (83%)\n\nWriting library                  : XviD 1.2.1 (UTC 2008-12-04)\n\n\n\nAudio\n\nID                               : 1\n\nFormat                           : MPEG Audio\n\nFormat version                   : Version 1\n\nFormat profile                   : Layer 3\n\nCodec ID                         : 55\n\nCodec ID/Hint                    : MP3\n\nDuration                         : 1h 49mn\n\nBit rate mode                    : Variable\n\nBit rate                         : 137 Kbps\n\nNominal bit rate                 : 142 Kbps\n\nChannel(s)                       : 2 channels\n\nSampling rate                    : 48.0 KHz\n\nResolution                       : 16 bits\n\nStream size                      : 107 MiB (15%)\n\nAlignment                        : Aligned on interleaves\n\nInterleave, duration             : 24 ms (0.58 video frame)\n\nInterleave, preload duration     : 513 ms\n\nWriting library                  : LAME3.90.\n\nEncoding settings                : -m j -V 4 -q 2 -lowpass 17.6 --abr 142\n\n","torrent":{"xt":"urn:btih:1308e4f3f5f98363d4832804c047f4b40f76b5f0","amp;dn":"Couples.Retreat.CAM.XviD-CAMELOT","amp;tr":["udp%3A%2F%2Ftracker.openbittorrent.com%3A80","udp%3A%2F%2Fopen.demonii.com%3A1337","udp%3A%2F%2Ftracker.coppersurfer.tk%3A6969","udp%3A%2F%2Fexodus.desync.com%3A6969"],"infoHash":"1308e4f3f5f98363d4832804c047f4b40f76b5f0","infoHashBuffer":{"type":"Buffer","data":[19,8,228,243,245,249,131,99,212,131,40,4,192,71,244,180,15,118,181,240]},"announce":[],"urlList":[]}}